<?xml version="1.0" encoding="utf-8"?>
<!-- Generator: Adobe Illustrator 26.5.0, SVG Export Plug-In . SVG Version: 6.00 Build 0)  -->
<svg version="1.1" id="Calque_1" xmlns="http://www.w3.org/2000/svg" xmlns:xlink="http://www.w3.org/1999/xlink" x="0px" y="0px"
	 viewBox="0 0 300 300" style="enable-background:new 0 0 300 300;" xml:space="preserve">
<style type="text/css">
	.st0{fill:#162E4D;}
</style>
<g>
	<path class="st0" d="M26.97,153.53c4.94,1.45,9.06,3.13,12.35,5.02c0.21,0.12,0.42,0.11,0.63-0.01l9.95-6.13
		c0.4-0.25,0.44-0.52,0.09-0.81c-0.53-0.45-1.15-0.85-1.86-1.2c-4.38-2.14-9.49-4.18-15.33-6.12c-3.8-1.26-9.55-3.56-9.9-6.53
		c-0.18-1.51,0.52-2.74,2.09-3.67c7.31-4.31,16.56,0.36,21.85,3.74c0.19,0.12,0.5,0.12,0.69-0.01l9.87-6.56
		c0.15-0.1,0.15-0.27,0-0.37c-6.05-4-14.69-7.72-23.53-8.07c-12.33-0.49-23,4-25.57,11.76c-0.85,2.57-0.56,5.2,0.87,7.9
		C11.97,147.69,19.49,151.33,26.97,153.53z"/>
	<path class="st0" d="M234.59,163.93c-0.54-0.39-1.29-0.59-2.25-0.59h-4.09v4.35h3.84c1.11,0,1.94-0.2,2.48-0.59
		c0.54-0.4,0.82-0.94,0.82-1.63C235.39,164.84,235.12,164.33,234.59,163.93z M234.59,163.93c-0.54-0.39-1.29-0.59-2.25-0.59h-4.09
		v4.35h3.84c1.11,0,1.94-0.2,2.48-0.59c0.54-0.4,0.82-0.94,0.82-1.63C235.39,164.84,235.12,164.33,234.59,163.93z M234.59,163.93
		c-0.54-0.39-1.29-0.59-2.25-0.59h-4.09v4.35h3.84c1.11,0,1.94-0.2,2.48-0.59c0.54-0.4,0.82-0.94,0.82-1.63
		C235.39,164.84,235.12,164.33,234.59,163.93z M234.59,163.93c-0.54-0.39-1.29-0.59-2.25-0.59h-4.09v4.35h3.84
		c1.11,0,1.94-0.2,2.48-0.59c0.54-0.4,0.82-0.94,0.82-1.63C235.39,164.84,235.12,164.33,234.59,163.93z M292.64,146.16
		c0.01-8.73-2.66-16.74-15.39-21.27c-3.17-1.13-6.58-1.8-10.24-2.02c-4-0.23-7.56-0.09-10.68,0.43c-8.31,1.4-15.02,4.27-20.11,8.62
		c-0.22,0.2-0.69,0.16-0.84-0.06c-4.66-6.49-16.63-9.64-27.24-9.02c-6,0.35-11.59,1.68-16.77,3.97c-1.14,0.5-1.93,1.23-3.09,1.76
		c-0.4,0.2-0.6,0.13-0.6-0.2v-3.99c0-0.15-0.19-0.27-0.43-0.27l-14.94,0.01c-0.33,0-0.51,0.1-0.49,0.32
		c0.03,3.5,0.06,7.05,0.07,10.64c0.01,1.4-0.78,2.59-2.37,3.6c-9.7,6.11-19.25,12.17-28.65,18.16c-0.22,0.14-0.33,0.31-0.33,0.51
		l0.01,19.47c0,0.23,0.18,0.35,0.55,0.35l14.41,0.02c0.38,0,0.59-0.12,0.59-0.37l0.01-14.7l-0.01,1.69c-2.13,0.01-3.2,1.71-3.2,5.1
		c0,1.65,0.27,2.9,0.82,3.75c0.55,0.85,1.32,1.27,2.34,1.27l-0.01,1.99c-1.85,0-3.29-0.68-4.33-2.04c-1.03-1.36-1.55-3.05-1.55-5.05
		c0-1.99,0.55-3.65,1.64-4.99c1.09-1.32,2.52-1.99,4.29-2.01v0.29c0-0.46,0.28-0.9,0.79-1.22c9.81-6.22,20.46-13.07,31.97-20.55
		c8-5.21,12.9-8.45,23.7-7.48c6.06,0.54,10.24,4,10.86,7.7c0.46,2.76,0.7,5.39,0.71,7.87c0.04,8.75,0.05,18.24,0.03,28.47
		c0,0.18,0.14,0.27,0.43,0.27l14.91-0.02c0.13,0,0.24-0.07,0.24-0.15c-0.01-7.86-0.01-15.73,0-23.64c0-2.47,0.43-5.28,1.3-8.42
		c0.67-2.4,1.68-4.28,3.02-5.65c4.83-4.89,11.72-7.31,21.23-6.4c1.86,0.18,3.64,0.48,5.17,1.21c3.65,1.76,5.6,4.12,5.86,7.08
		c0.21,2.26,0.31,4.52,0.31,6.79c0.01,9.39,0.01,19.01,0,28.86c0,0.16,0.2,0.3,0.46,0.3l15.11,0.04c0.3,0,0.44-0.09,0.44-0.29
		C292.64,166.2,292.64,155.94,292.64,146.16z M238.52,175.71h-3.26l-2.66-5.93h-4.34v5.93h-3.09v-14.43h7.43
		c2.07,0,3.59,0.4,4.56,1.18c0.97,0.79,1.45,1.8,1.45,3.05c0,1.85-1.03,3.13-3.09,3.83L238.52,175.71z M290.2,175.71h-11.13v-14.43
		h11.02v2.15h-7.93v3.91h6.37v2.1h-6.37v4.04h8.04V175.71z M232.34,163.34h-4.09v4.35h3.84c1.11,0,1.94-0.2,2.48-0.59
		c0.54-0.4,0.82-0.94,0.82-1.63c0-0.63-0.27-1.15-0.8-1.54C234.05,163.54,233.3,163.34,232.34,163.34z M234.59,163.93
		c-0.54-0.39-1.29-0.59-2.25-0.59h-4.09v4.35h3.84c1.11,0,1.94-0.2,2.48-0.59c0.54-0.4,0.82-0.94,0.82-1.63
		C235.39,164.84,235.12,164.33,234.59,163.93z M234.59,163.93c-0.54-0.39-1.29-0.59-2.25-0.59h-4.09v4.35h3.84
		c1.11,0,1.94-0.2,2.48-0.59c0.54-0.4,0.82-0.94,0.82-1.63C235.39,164.84,235.12,164.33,234.59,163.93z"/>
	<path class="st0" d="M171.74,163.83h0.02c1.11,0,1.92,0.44,2.45,1.34c0.53,0.89,0.79,2.12,0.79,3.69c0,1.93-0.32,3.25-0.95,3.99
		c-0.61,0.7-1.34,1.06-2.2,1.09C171.87,170.7,171.83,167.32,171.74,163.83z"/>
	<path class="st0" d="M187.74,147.05l-0.1,29.86c0,0.19-0.14,0.28-0.45,0.28l-14.85,0.01c-0.35,0-0.52-0.11-0.52-0.34
		c0.01-0.31,0.01-0.62,0.01-0.93c1.76-0.03,3.18-0.68,4.27-1.95c1.11-1.3,1.66-3,1.66-5.1c0-2.02-0.53-3.68-1.6-5.02
		c-1.06-1.33-2.52-2.01-4.36-2.01h-0.06l-0.01,1.97c-0.01-0.43-0.02-0.87-0.04-1.3c-0.06-1.87,0.09-3.64,0.46-5.33
		c0.09-0.41,0.39-0.8,0.86-1.1l14.47-9.11C187.66,146.88,187.74,146.9,187.74,147.05z"/>
	<path class="st0" d="M155.1,141.88l-13.43,8.69c-0.75,0.49-1.12,0.39-1.12-0.3c0.04-2.28-0.08-4.64-0.36-7.08
		c-0.52-4.46-4.02-8.93-11.19-10.27c-8.4-1.59-16.67,0.24-22.91,4.25c-2.56,1.65-5.12,3.29-7.67,4.92
		c-5.26,3.38-10.51,6.73-15.73,10.06c-16.64,11.21-29.25,18.9-32.1,20.39c-3.26,1.7-7.97,3.86-8.08,3.91
		c-6.31,2.77-17.64,1.49-17.64,1.49c-8.15-0.56-15.66-3.94-20.62-8.03c-0.38-0.31-0.36-0.76,0.04-1.05l9.02-6.62
		c0.17-0.13,0.48-0.13,0.65,0.01c4.57,3.88,12.23,7.78,19.94,5.88c1.69-0.42,3.99-1.55,6.86-3.41c13.9-8.94,27.2-17.44,39.91-25.5
		c1.19-0.76,1.75-1.52,2-2.38c0.23-0.76,0.22-1.59,0.2-2.55c-0.1-4.35-0.17-8.61-0.2-12.77c-0.04-5.72,0-11.26,0.12-16.62
		c0-0.05,0.08-0.1,0.17-0.1l15.16-0.01c0.36,0,0.54,0.12,0.54,0.35l0.03,24.21c0,0.49,0.24,0.54,0.72,0.17
		c1.37-1.05,2.9-1.94,4.62-2.67c6.01-2.54,12.77-3.91,20.28-4.09c5.64-0.14,11.11,0.77,16.43,2.73c6.97,2.57,11.52,6.63,13.65,12.18
		c0.41,1.1,0.8,2.22,1.14,3.34C155.63,141.35,155.48,141.64,155.1,141.88z"/>
	<path class="st0" d="M84.37,156.59c-1.12,0.71-1.68,1.57-1.68,2.57v0.02c0.02,6.35,0.03,12.25,0.03,17.72c0,0.2,0.17,0.3,0.48,0.3
		l15.03-0.02c0.07,0,0.14-0.01,0.2-0.02v-29.47C93.92,150.53,89.23,153.49,84.37,156.59z M96.77,163.5h-4.55v12.2H88.9v-12.2h-4.55
		v-2.23h12.42V163.5z"/>
	<path class="st0" d="M171.85,173.94c0,0.67-0.01,1.33-0.01,1.99h-0.14l0.01-1.99h0.01C171.76,173.94,171.81,173.94,171.85,173.94z"
		/>
</g>
</svg>
