<?xml version="1.0" encoding="UTF-8"?>
<svg id="Calque_1" data-name="Calque 1" xmlns="http://www.w3.org/2000/svg" viewBox="0 0 286.6 86.54">
  <defs>
    <style>
      .cls-1 {
        fill: #161a30;
      }
    </style>
  </defs>
  <path class="cls-1" d="M150,43.7l-13.3,10.2c-.7,.6-1.1,.5-1.1-.4,0-2.7-.1-5.5-.4-8.3-.5-5.3-4-10.5-11.1-12.1-8.3-1.9-16.6,.3-22.7,5-2.5,1.9-5.1,3.9-7.6,5.8-5.2,4-10.4,7.9-15.6,11.9-16.5,13.2-29,22.3-31.9,24-3.2,2-7.9,4.6-8,4.6-6.3,3.3-17.5,1.8-17.5,1.8-8.1-.7-15.5-4.6-20.5-9.5-.4-.4-.4-.9,0-1.2l9-7.8c.2-.2,.5-.2,.6,0,4.5,4.6,12.1,9.2,19.8,6.9,1.7-.5,4-1.8,6.8-4,13.8-10.5,27-20.5,39.6-30,1.2-.9,1.7-1.8,2-2.8,.2-.9,.2-1.9,.2-3-.1-5.1-.2-10.1-.2-15.1,0-6.7,0-13.3,.1-19.6,0-.1,.1-.1,.2-.1h15c.4,0,.5,.1,.5,.4V28.9c0,.6,.2,.6,.7,.2,1.4-1.2,2.9-2.3,4.6-3.1,6-3,12.7-4.6,20.1-4.8,5.6-.2,11,.9,16.3,3.2,6.9,3,11.4,7.8,13.6,14.4,.4,1.3,.8,2.6,1.1,3.9,.3,.4,.1,.8-.3,1Z"/>
  <path class="cls-1" d="M22.8,57.5c4.9,1.7,9,3.7,12.3,5.9,.2,.1,.4,.1,.6,0l9.9-7.2c.4-.3,.4-.6,.1-1-.5-.5-1.1-1-1.8-1.4-4.3-2.5-9.4-4.9-15.2-7.2-3.8-1.5-9.5-4.2-9.8-7.7-.2-1.8,.5-3.2,2.1-4.3,7.3-5.1,16.4,.4,21.7,4.4,.2,.1,.5,.1,.7,0l9.8-7.7c.2-.1,.2-.3,0-.4-6-4.7-14.6-9.1-23.4-9.5-12.3-.7-22.9,4.6-25.5,13.8-.9,3-.6,6.1,.9,9.3,2.8,6.1,10.2,10.4,17.6,13Z"/>
  <path class="cls-1" d="M228.9,69.7c-.5-.5-1.3-.7-2.2-.7h-4.1v5.1h3.8c1.1,0,1.9-.2,2.5-.7,.5-.5,.8-1.1,.8-1.9,0-.7-.2-1.3-.8-1.8Zm0,0c-.5-.5-1.3-.7-2.2-.7h-4.1v5.1h3.8c1.1,0,1.9-.2,2.5-.7,.5-.5,.8-1.1,.8-1.9,0-.7-.2-1.3-.8-1.8Zm0,0c-.5-.5-1.3-.7-2.2-.7h-4.1v5.1h3.8c1.1,0,1.9-.2,2.5-.7,.5-.5,.8-1.1,.8-1.9,0-.7-.2-1.3-.8-1.8Zm0,0c-.5-.5-1.3-.7-2.2-.7h-4.1v5.1h3.8c1.1,0,1.9-.2,2.5-.7,.5-.5,.8-1.1,.8-1.9,0-.7-.2-1.3-.8-1.8Zm57.7-20.9c0-10.3-2.6-19.7-15.3-25.1-3.1-1.3-6.5-2.1-10.2-2.4-4-.3-7.5-.1-10.6,.5-8.2,1.6-14.9,5-20,10.2-.2,.2-.7,.2-.8-.1-4.6-7.6-16.5-11.4-27-10.6-5.9,.4-11.5,2-16.6,4.7-1.1,.6-1.9,1.4-3.1,2.1-.4,.2-.6,.1-.6-.2v-4.7c0-.2-.2-.3-.4-.3h-14.8c-.3,0-.5,.1-.5,.4,0,4.1,.1,8.3,.1,12.5,0,1.6-.8,3.1-2.4,4.2-9.6,7.2-19.1,14.3-28.4,21.4-.2,.2-.3,.4-.3,.6v22.9c0,.3,.2,.4,.6,.4h14.3c.4,0,.6-.1,.6-.4v-15.3c-2.1,0-3.2,2-3.2,6,0,1.9,.3,3.4,.8,4.4,.6,1,1.3,1.5,2.3,1.5v2.3c-1.8,0-3.3-.8-4.3-2.4s-1.5-3.6-1.5-5.9,.6-4.3,1.6-5.9c1.1-1.6,2.5-2.3,4.3-2.4v.3c0-.5,.3-1.1,.8-1.4,9.7-7.3,20.3-15.4,31.7-24.2,7.9-6.1,12.8-9.9,23.5-8.8,6,.6,10.2,4.7,10.8,9.1,.5,3.2,.7,6.4,.7,9.3,0,10.3,.1,21.5,0,33.5,0,.2,.1,.3,.4,.3h14.8c.1,0,.2-.1,.2-.2v-27.9c0-2.9,.4-6.2,1.3-9.9,.7-2.8,1.7-5,3-6.7,4.8-5.8,11.6-8.6,21.1-7.5,1.9,.2,3.6,.6,5.1,1.4,3.6,2.1,5.6,4.9,5.8,8.3,.2,2.7,.3,5.3,.3,8v34c0,.2,.2,.4,.5,.4h15c.3,0,.4-.1,.4-.3V48.8Zm-53.8,34.8h-3.2l-2.6-7h-4.3v7h-3.1v-17h7.4c2.1,0,3.6,.5,4.5,1.4,1,.9,1.4,2.1,1.4,3.6,0,2.2-1,3.7-3.1,4.5l3,7.5Zm51.3,0h-11v-17h10.9v2.5h-7.9v4.6h6.3v2.5h-6.3v4.8h8v2.6h0Zm-57.4-14.6h-4.1v5.1h3.8c1.1,0,1.9-.2,2.5-.7,.5-.5,.8-1.1,.8-1.9s-.3-1.4-.8-1.8c-.5-.4-1.2-.7-2.2-.7Zm2.2,.7c-.5-.5-1.3-.7-2.2-.7h-4.1v5.1h3.8c1.1,0,1.9-.2,2.5-.7,.5-.5,.8-1.1,.8-1.9,0-.7-.2-1.3-.8-1.8Zm0,0c-.5-.5-1.3-.7-2.2-.7h-4.1v5.1h3.8c1.1,0,1.9-.2,2.5-.7,.5-.5,.8-1.1,.8-1.9,0-.7-.2-1.3-.8-1.8Z"/>
  <path class="cls-1" d="M166.5,69.6h0c1.1,0,1.9,.5,2.4,1.6s.8,2.5,.8,4.3c0,2.3-.3,3.8-.9,4.7-.6,.8-1.3,1.2-2.2,1.3,.1-3.8,0-7.8-.1-11.9Z"/>
  <path class="cls-1" d="M182.4,49.8l-.1,35.2c0,.2-.1,.3-.4,.3h-14.7c-.4,0-.5-.1-.5-.4v-1.1c1.7,0,3.2-.8,4.2-2.3,1.1-1.5,1.6-3.5,1.6-6s-.5-4.3-1.6-5.9-2.5-2.4-4.3-2.4h-.1v.8c-.1-2.2,.1-4.3,.4-6.3,.1-.5,.4-.9,.9-1.3l14.4-10.7c.2-.1,.2,0,.2,.1Z"/>
  <path class="cls-1" d="M79.8,61.1c-1.1,.8-1.7,1.9-1.7,3h0v20.9c0,.2,.2,.4,.5,.4h15.1V50.6c-4.4,3.3-9.1,6.8-13.9,10.5Zm12.3,8.1h-4.5v14.4h-3.3v-14.4h-4.5v-2.6h12.3v2.6h0Z"/>
  <path class="cls-1" d="M166.7,81.5v2.4h-.1v-2.3h0q0-.1,.1-.1Z"/>
</svg>