<?xml version="1.0" encoding="utf-8"?>
<!-- Generator: Adobe Illustrator 26.5.0, SVG Export Plug-In . SVG Version: 6.00 Build 0)  -->
<svg version="1.1" id="Calque_1" xmlns="http://www.w3.org/2000/svg" xmlns:xlink="http://www.w3.org/1999/xlink" x="0px" y="0px"
	 viewBox="0 0 300 100" style="enable-background:new 0 0 300 100;" xml:space="preserve">
<style type="text/css">
	.st0{fill:#161A30;}
</style>
<g>
	<path class="st0" d="M156.7,50.4l-13.3,10.2c-0.7,0.6-1.1,0.5-1.1-0.4c0-2.7-0.1-5.5-0.4-8.3c-0.5-5.3-4-10.5-11.1-12.1
		c-8.3-1.9-16.6,0.3-22.7,5c-2.5,1.9-5.1,3.9-7.6,5.8c-5.2,4-10.4,7.9-15.6,11.9c-16.5,13.2-29,22.3-31.9,24c-3.2,2-7.9,4.6-8,4.6
		c-6.3,3.3-17.5,1.8-17.5,1.8C19.4,92.2,12,88.3,7,83.4c-0.4-0.4-0.4-0.9,0-1.2l9-7.8c0.2-0.2,0.5-0.2,0.6,0
		c4.5,4.6,12.1,9.2,19.8,6.9c1.7-0.5,4-1.8,6.8-4c13.8-10.5,27-20.5,39.6-30c1.2-0.9,1.7-1.8,2-2.8c0.2-0.9,0.2-1.9,0.2-3
		c-0.1-5.1-0.2-10.1-0.2-15.1c0-6.7,0-13.3,0.1-19.6c0-0.1,0.1-0.1,0.2-0.1h15c0.4,0,0.5,0.1,0.5,0.4v28.5c0,0.6,0.2,0.6,0.7,0.2
		c1.4-1.2,2.9-2.3,4.6-3.1c6-3,12.7-4.6,20.1-4.8c5.6-0.2,11,0.9,16.3,3.2c6.9,3,11.4,7.8,13.6,14.4c0.4,1.3,0.8,2.6,1.1,3.9
		C157.3,49.8,157.1,50.2,156.7,50.4z"/>
	<path class="st0" d="M29.5,64.2c4.9,1.7,9,3.7,12.3,5.9c0.2,0.1,0.4,0.1,0.6,0l9.9-7.2c0.4-0.3,0.4-0.6,0.1-1
		c-0.5-0.5-1.1-1-1.8-1.4c-4.3-2.5-9.4-4.9-15.2-7.2c-3.8-1.5-9.5-4.2-9.8-7.7c-0.2-1.8,0.5-3.2,2.1-4.3c7.3-5.1,16.4,0.4,21.7,4.4
		c0.2,0.1,0.5,0.1,0.7,0l9.8-7.7c0.2-0.1,0.2-0.3,0-0.4c-6-4.7-14.6-9.1-23.4-9.5C24.2,27.4,13.6,32.7,11,41.9
		c-0.9,3-0.6,6.1,0.9,9.3C14.7,57.3,22.1,61.6,29.5,64.2z"/>
	<path class="st0" d="M235.6,76.4c-0.5-0.5-1.3-0.7-2.2-0.7h-4.1v5.1h3.8c1.1,0,1.9-0.2,2.5-0.7c0.5-0.5,0.8-1.1,0.8-1.9
		C236.4,77.5,236.2,76.9,235.6,76.4z M235.6,76.4c-0.5-0.5-1.3-0.7-2.2-0.7h-4.1v5.1h3.8c1.1,0,1.9-0.2,2.5-0.7
		c0.5-0.5,0.8-1.1,0.8-1.9C236.4,77.5,236.2,76.9,235.6,76.4z M235.6,76.4c-0.5-0.5-1.3-0.7-2.2-0.7h-4.1v5.1h3.8
		c1.1,0,1.9-0.2,2.5-0.7c0.5-0.5,0.8-1.1,0.8-1.9C236.4,77.5,236.2,76.9,235.6,76.4z M235.6,76.4c-0.5-0.5-1.3-0.7-2.2-0.7h-4.1v5.1
		h3.8c1.1,0,1.9-0.2,2.5-0.7c0.5-0.5,0.8-1.1,0.8-1.9C236.4,77.5,236.2,76.9,235.6,76.4z M293.3,55.5c0-10.3-2.6-19.7-15.3-25.1
		c-3.1-1.3-6.5-2.1-10.2-2.4c-4-0.3-7.5-0.1-10.6,0.5c-8.2,1.6-14.9,5-20,10.2c-0.2,0.2-0.7,0.2-0.8-0.1c-4.6-7.6-16.5-11.4-27-10.6
		c-5.9,0.4-11.5,2-16.6,4.7c-1.1,0.6-1.9,1.4-3.1,2.1c-0.4,0.2-0.6,0.1-0.6-0.2v-4.7c0-0.2-0.2-0.3-0.4-0.3h-14.8
		c-0.3,0-0.5,0.1-0.5,0.4c0,4.1,0.1,8.3,0.1,12.5c0,1.6-0.8,3.1-2.4,4.2c-9.6,7.2-19.1,14.3-28.4,21.4c-0.2,0.2-0.3,0.4-0.3,0.6
		v22.9c0,0.3,0.2,0.4,0.6,0.4h14.3c0.4,0,0.6-0.1,0.6-0.4V74.3v2c-2.1,0-3.2,2-3.2,6c0,1.9,0.3,3.4,0.8,4.4c0.6,1,1.3,1.5,2.3,1.5
		v2.3c-1.8,0-3.3-0.8-4.3-2.4s-1.5-3.6-1.5-5.9s0.6-4.3,1.6-5.9c1.1-1.6,2.5-2.3,4.3-2.4v0.3c0-0.5,0.3-1.1,0.8-1.4
		c9.7-7.3,20.3-15.4,31.7-24.2c7.9-6.1,12.8-9.9,23.5-8.8c6,0.6,10.2,4.7,10.8,9.1c0.5,3.2,0.7,6.4,0.7,9.3c0,10.3,0.1,21.5,0,33.5
		c0,0.2,0.1,0.3,0.4,0.3h14.8c0.1,0,0.2-0.1,0.2-0.2c0-9.3,0-18.5,0-27.9c0-2.9,0.4-6.2,1.3-9.9c0.7-2.8,1.7-5,3-6.7
		c4.8-5.8,11.6-8.6,21.1-7.5c1.9,0.2,3.6,0.6,5.1,1.4c3.6,2.1,5.6,4.9,5.8,8.3c0.2,2.7,0.3,5.3,0.3,8c0,11.1,0,22.4,0,34
		c0,0.2,0.2,0.4,0.5,0.4h15c0.3,0,0.4-0.1,0.4-0.3C293.3,79.1,293.3,67,293.3,55.5z M239.5,90.3h-3.2l-2.6-7h-4.3v7h-3.1v-17h7.4
		c2.1,0,3.6,0.5,4.5,1.4c1,0.9,1.4,2.1,1.4,3.6c0,2.2-1,3.7-3.1,4.5L239.5,90.3z M290.8,90.3h-11v-17h10.9v2.5h-7.9v4.6h6.3v2.5
		h-6.3v4.8h8V90.3L290.8,90.3z M233.4,75.7h-4.1v5.1h3.8c1.1,0,1.9-0.2,2.5-0.7c0.5-0.5,0.8-1.1,0.8-1.9s-0.3-1.4-0.8-1.8
		C235.1,76,234.4,75.7,233.4,75.7z M235.6,76.4c-0.5-0.5-1.3-0.7-2.2-0.7h-4.1v5.1h3.8c1.1,0,1.9-0.2,2.5-0.7
		c0.5-0.5,0.8-1.1,0.8-1.9C236.4,77.5,236.2,76.9,235.6,76.4z M235.6,76.4c-0.5-0.5-1.3-0.7-2.2-0.7h-4.1v5.1h3.8
		c1.1,0,1.9-0.2,2.5-0.7c0.5-0.5,0.8-1.1,0.8-1.9C236.4,77.5,236.2,76.9,235.6,76.4z"/>
	<path class="st0" d="M173.2,76.3L173.2,76.3c1.1,0,1.9,0.5,2.4,1.6s0.8,2.5,0.8,4.3c0,2.3-0.3,3.8-0.9,4.7
		c-0.6,0.8-1.3,1.2-2.2,1.3C173.4,84.4,173.3,80.4,173.2,76.3z"/>
	<path class="st0" d="M189.1,56.5L189,91.7c0,0.2-0.1,0.3-0.4,0.3h-14.7c-0.4,0-0.5-0.1-0.5-0.4c0-0.4,0-0.7,0-1.1
		c1.7,0,3.2-0.8,4.2-2.3c1.1-1.5,1.6-3.5,1.6-6c0-2.4-0.5-4.3-1.6-5.9s-2.5-2.4-4.3-2.4h-0.1v2.3c0-0.5,0-1,0-1.5
		c-0.1-2.2,0.1-4.3,0.4-6.3c0.1-0.5,0.4-0.9,0.9-1.3l14.4-10.7C189.1,56.3,189.1,56.4,189.1,56.5z"/>
	<path class="st0" d="M86.5,67.8c-1.1,0.8-1.7,1.9-1.7,3l0,0c0,7.5,0,14.4,0,20.9c0,0.2,0.2,0.4,0.5,0.4h14.9c0.1,0,0.1,0,0.2,0
		V57.3C96,60.6,91.3,64.1,86.5,67.8z M98.8,75.9h-4.5v14.4H91V75.9h-4.5v-2.6h12.3V75.9L98.8,75.9z"/>
	<path class="st0" d="M173.4,88.2c0,0.8,0,1.6,0,2.4h-0.1v-2.3l0,0C173.3,88.2,173.3,88.2,173.4,88.2z"/>
</g>
</svg>
